# File created by Blade
# Date/Time:  Thu Sep 25 15:41:58 2014
# Frame Rate: 120.000 fps
#------------------------------------------------------
:FULLY-SPECIFIED
:DEGREES
757
root 14.742934 32.088762 -1.584073 180.487607 -79.600480 -134.804801
Spine 8.061690 8.713996 -10.264102
Head -42.185931 2.235404 11.504220
LeftShoulder 6.543567 10.200635 26.003791
LeftArm 58.105618 18.934602 -48.336650
LeftForeArm 6.175745 0.000000 33.566325
LeftHand -27.710306 -0.000000 13.500426
LeftHandThumb1 -26.253704 0.000000 33.147579
RightShoulder -1.043490 19.208739 -22.284517
RightArm 29.704693 -48.297888 66.706882
RightForeArm -20.762039 -0.000000 44.261276
RightHand -2.982847 -0.000000 0.391639
RightHandThumb1 -24.326973 -0.000000 -32.862282
LeftUpLeg -60.765187 2.039526 -6.589806
LeftLeg 5.414998 -0.000000 -0.000000
LeftFoot -3.679494 18.802936 -15.138031
LeftToeBase 7.568895 -0.000000 -0.000000
RightUpLeg -28.958308 3.486314 12.198806
RightLeg 12.116866 -0.000000 -0.000000
RightFoot -14.954390 -0.399809 -3.709410
RightToeBase -10.084006 -0.000000 0.000000
758
root 14.978238 32.039219 -1.565051 179.691117 -79.600626 -134.935770
Spine 8.033942 8.827301 -10.186911
Head -41.839697 2.312678 11.442843
LeftShoulder 6.455352 10.335973 25.752766
LeftArm 57.579418 19.658560 -48.874945
LeftForeArm 6.306957 0.000000 33.855751
LeftHand -27.700382 -0.000000 13.096465
LeftHandThumb1 -26.253704 0.000000 33.147579
RightShoulder -1.135185 19.029811 -22.133469
RightArm 28.813298 -48.670237 67.365982
RightForeArm -20.720046 -0.000000 43.790047
RightHand -2.921891 -0.000000 0.440488
RightHandThumb1 -24.326973 -0.000000 -32.862282
LeftUpLeg -60.177409 2.283222 -6.850640
LeftLeg 5.174004 -0.000000 -0.000000
LeftFoot -3.156818 18.585195 -15.024307
LeftToeBase 7.840152 -0.000000 -0.000000
RightUpLeg -28.635647 3.888724 12.067982
RightLeg 12.644029 -0.000000 -0.000000
RightFoot -15.828202 -1.155063 -3.917040
RightToeBase -9.636543 -0.000000 0.000000
759
root 15.213114 31.986689 -1.546800 178.850799 -79.630835 -135.027227
Spine 8.019277 8.926962 -10.100940
Head -41.472554 2.436921 11.366784
LeftShoulder 6.312118 10.550846 25.500041
LeftArm 57.237429 20.338496 -49.333545
LeftForeArm 6.515156 -0.000000 33.976221
LeftHand -27.804126 -0.000000 12.527379
LeftHandThumb1 -26.253704 0.000000 33.147579
RightShoulder -1.304044 18.765502 -21.969125
RightArm 28.167409 -49.046660 67.834250
RightForeArm -20.586473 -0.000000 43.277383
RightHand -2.921285 -0.000000 0.213141
RightHandThumb1 -24.326973 -0.000000 -32.862282
LeftUpLeg -59.609251 2.520861 -7.126775
LeftLeg 4.981479 -0.000000 -0.000000
LeftFoot -2.643483 18.325885 -14.946616
LeftToeBase 8.059808 -0.000000 -0.000000
RightUpLeg -28.336838 4.075954 12.053976
RightLeg 13.189733 -0.000000 -0.000000
RightFoot -16.808259 -1.787740 -3.908124
RightToeBase -8.725341 -0.000000 0.000000
760
root 15.441533 31.933425 -1.527214 178.207993 -79.594744 -135.332828
Spine 8.000314 9.120512 -10.060198
Head -41.103831 2.598880 11.273398
LeftShoulder 6.194328 11.179179 25.235970
LeftArm 57.177203 20.738400 -49.498661
LeftForeArm 6.318479 -0.000000 34.255513
LeftHand -27.842765 0.000000 13.514925
LeftHandThumb1 -26.253704 0.000000 33.147579
RightShoulder -1.453070 18.574603 -21.775746
RightArm 27.285241 -49.363420 68.482409
RightForeArm -20.508394 -0.000000 42.833454
RightHand -2.800558 -0.000000 0.322385
RightHandThumb1 -24.326973 -0.000000 -32.862282
LeftUpLeg -58.985195 2.801593 -7.388623
LeftLeg 4.723280 -0.000000 -0.000000
LeftFoot -2.185412 18.115916 -14.918213
LeftToeBase 8.384270 -0.000000 -0.000000
RightUpLeg -27.975430 4.347916 12.023592
RightLeg 13.674260 -0.000000 -0.000000
RightFoot -17.709978 -2.517986 -4.024625
RightToeBase -7.999828 -0.000000 0.000000
761
root 15.673977 31.880307 -1.506549 177.087679 -79.610521 -135.131371
Spine 7.976045 9.237311 -9.864220
Head -40.654253 2.680306 11.115577
LeftShoulder 6.026540 11.486781 24.919037
LeftArm 56.888557 21.383869 -49.782160
LeftForeArm 6.567099 -0.000000 34.442143
LeftHand -27.724920 -0.000000 12.472350
LeftHandThumb1 -26.253704 0.000000 33.147579
RightShoulder -1.613198 18.363205 -21.657165
RightArm 26.440754 -49.625891 69.148792
RightForeArm -20.440259 0.000000 42.346836
RightHand -2.855843 -0.000000 0.385425
RightHandThumb1 -24.326973 -0.000000 -32.862282
LeftUpLeg -58.418626 2.983937 -7.498327
LeftLeg 4.525498 -0.000000 -0.000000
LeftFoot -1.708890 17.993839 -14.872374
LeftToeBase 8.670057 -0.000000 -0.000000
RightUpLeg -27.687858 4.411517 12.158186
RightLeg 14.250109 -0.000000 -0.000000
RightFoot -18.607650 -3.242862 -4.278000
RightToeBase -7.558576 -0.000000 0.000000
762
root 15.911789 31.830469 -1.490369 175.566893 -79.605477 -134.496258
Spine 7.935276 9.376657 -9.567749
Head -40.206958 2.808224 10.923092
LeftShoulder 5.876524 11.879607 24.579528
LeftArm 56.700612 21.942534 -50.034469
LeftForeArm 6.611055 -0.000000 34.558510
LeftHand -27.715498 -0.000000 13.817386
LeftHandThumb1 -26.253704 0.000000 33.147579
RightShoulder -1.778087 18.143905 -21.560706
RightArm 25.534693 -49.770865 69.867708
RightForeArm -20.302045 -0.000000 41.903874
RightHand -2.544146 0.000000 0.738914
RightHandThumb1 -24.326973 -0.000000 -32.862282
LeftUpLeg -57.907231 3.220043 -7.561893
LeftLeg 4.345331 -0.000000 -0.000000
LeftFoot -1.173258 17.783804 -14.864997
LeftToeBase 8.838326 -0.000000 -0.000000
RightUpLeg -27.410113 4.461939 12.391696
RightLeg 14.790372 -0.000000 -0.000000
RightFoot -19.425902 -3.920827 -4.474823
RightToeBase -7.374544 -0.000000 0.000000
763
root 16.149277 31.782028 -1.471352 174.195151 -79.561847 -133.993895
Spine 7.881835 9.591409 -9.288883
Head -39.783228 2.911351 10.753206
LeftShoulder 5.772836 12.078323 24.255964
LeftArm 56.372909 22.650665 -50.267249
LeftForeArm 7.090789 0.000000 34.608482
LeftHand -27.660405 -0.000000 14.070172
LeftHandThumb1 -26.253704 0.000000 33.147579
RightShoulder -1.994014 17.942469 -21.459039
RightArm 24.590356 -49.878782 70.632021
RightForeArm -20.080859 -0.000000 41.500064
RightHand -2.543989 0.000000 0.977672
RightHandThumb1 -24.326973 -0.000000 -32.862282
LeftUpLeg -57.407933 3.476863 -7.632479
LeftLeg 4.153863 -0.000000 -0.000000
LeftFoot -0.615511 17.606261 -14.820598
LeftToeBase 9.107345 -0.000000 -0.000000
RightUpLeg -27.178717 4.508751 12.613492
RightLeg 15.395889 -0.000000 -0.000000
RightFoot -20.223897 -4.575558 -4.619050
RightToeBase -7.129855 -0.000000 0.000000
764
root 16.382618 31.731662 -1.453981 172.233535 -79.589130 -132.903563
Spine 7.851569 9.640472 -8.854776
Head -39.287396 3.049685 10.481716
LeftShoulder 5.584330 12.456660 23.878472
LeftArm 56.095017 23.153981 -50.657873
LeftForeArm 7.434837 -0.000000 34.661736
LeftHand -27.486042 0.000000 14.081303
LeftHandThumb1 -26.253704 0.000000 33.147579
RightShoulder -2.119119 17.645361 -21.383218
RightArm 23.731947 -49.863141 71.318281
RightForeArm -19.903141 0.000000 41.165499
RightHand -2.559071 -0.000000 1.424162
RightHandThumb1 -24.326973 -0.000000 -32.862282
LeftUpLeg -56.911748 3.645899 -7.597986
LeftLeg 4.007057 -0.000000 -0.000000
LeftFoot -0.056916 17.403909 -14.747980
LeftToeBase 9.338982 -0.000000 -0.000000
RightUpLeg -26.905839 4.545734 12.930583
RightLeg 15.923982 -0.000000 -0.000000
RightFoot -20.914428 -5.381694 -4.921936
RightToeBase -6.447383 -0.000000 0.000000
765
root 16.615078 31.683374 -1.437732 170.405983 -79.545244 -131.971247
Spine 7.867659 9.775825 -8.429713
Head -38.840910 3.163340 10.202845
LeftShoulder 5.392604 12.723417 23.478912
LeftArm 55.739142 23.681823 -50.999811
LeftForeArm 7.560730 -0.000000 34.804758
LeftHand -27.657202 -0.000000 13.484654
LeftHandThumb1 -26.253704 0.000000 33.147579
RightShoulder -2.254009 17.487099 -21.326431
RightArm 22.686796 -49.831218 72.162397
RightForeArm -19.803667 0.000000 40.828473
RightHand -2.440820 -0.000000 1.289204
RightHandThumb1 -24.326973 -0.000000 -32.862282
LeftUpLeg -56.422844 3.922841 -7.618680
LeftLeg 3.917559 -0.000000 -0.000000
LeftFoot 0.528406 17.169212 -14.598258
LeftToeBase 9.431759 -0.000000 -0.000000
RightUpLeg -26.615072 4.591643 13.240245
RightLeg 16.444278 -0.000000 -0.000000
RightFoot -21.567413 -6.165478 -5.267783
RightToeBase -5.738648 -0.000000 0.000000
766
root 16.847288 31.638493 -1.425203 168.709104 -79.421383 -131.181879
Spine 7.915883 9.988354 -8.061847
Head -38.443002 3.346106 9.996135
LeftShoulder 5.240566 12.908463 23.195269
LeftArm 55.281452 24.241562 -51.426491
LeftForeArm 7.675567 -0.000000 34.893170
LeftHand -27.496411 0.000000 13.754963
LeftHandThumb1 -26.253704 0.000000 33.147579
RightShoulder -2.400931 17.291386 -21.187139
RightArm 21.792551 -49.783404 72.878915
RightForeArm -19.851212 -0.000000 40.484054
RightHand -2.530013 -0.000000 1.135715
RightHandThumb1 -24.326973 -0.000000 -32.862282
LeftUpLeg -55.888367 4.200850 -7.512400
LeftLeg 3.765025 -0.000000 -0.000000
LeftFoot 1.102314 17.022912 -14.577361
LeftToeBase 9.525534 -0.000000 -0.000000
RightUpLeg -26.270767 4.829526 13.492519
RightLeg 16.896741 -0.000000 -0.000000
RightFoot -22.116139 -6.969970 -5.525426
RightToeBase -5.383600 -0.000000 0.000000
767
root 17.077497 31.592817 -1.409452 166.210891 -79.391901 -129.568720
Spine 7.969997 10.082227 -7.420677
Head -37.943446 3.431523 9.560143
LeftShoulder 5.117065 13.010511 22.759270
LeftArm 54.724199 24.811540 -51.903997
LeftForeArm 7.796631 -0.000000 34.962648
LeftHand -27.532509 -0.000000 13.550492
LeftHandThumb1 -26.253704 0.000000 33.147579
RightShoulder -2.583277 17.165005 -21.198277
RightArm 20.729244 -49.682816 73.763422
RightForeArm -19.869592 -0.000000 40.109242
RightHand -2.522016 0.000000 1.228995
RightHandThumb1 -24.326973 -0.000000 -32.862282
LeftUpLeg -55.390330 4.316400 -7.241983
LeftLeg 3.677378 -0.000000 -0.000000
LeftFoot 1.572054 16.876695 -14.708906
LeftToeBase 10.069451 -0.000000 -0.000000
RightUpLeg -25.952615 4.896348 13.866642
RightLeg 17.373952 -0.000000 -0.000000
RightFoot -22.573482 -7.762752 -5.900250
RightToeBase -5.317276 -0.000000 0.000000
